<?xml version="1.0" standalone="no"?>
<!DOCTYPE svg PUBLIC "-//W3C//DTD SVG 20010904//EN"
 "http://www.w3.org/TR/2001/REC-SVG-20010904/DTD/svg10.dtd">
<svg version="1.0" xmlns="http://www.w3.org/2000/svg"
 width="553.000000pt" height="452.000000pt" viewBox="0 0 553.000000 452.000000"
 preserveAspectRatio="xMidYMid meet">

<g transform="translate(0.000000,452.000000) scale(0.100000,-0.100000)"
fill="#000000" stroke="none">
<path d="M3540 3803 c0 -5 55 -25 123 -46 320 -101 654 -277 879 -464 118 -98
250 -244 330 -364 40 -59 76 -108 81 -109 11 0 -17 51 -71 130 -241 353 -657
642 -1157 805 -154 50 -185 58 -185 48z"/>
<path d="M1740 3763 c-267 -97 -385 -150 -548 -247 -211 -126 -384 -269 -519
-429 -242 -289 -353 -576 -353 -911 0 -371 142 -704 424 -995 199 -204 428
-361 716 -491 118 -53 274 -110 301 -110 30 0 14 17 -24 25 -96 21 -427 171
-566 258 -634 394 -934 976 -811 1572 111 535 583 1007 1270 1270 69 27 129
52 135 57 10 9 -1 10 -25 1z"/>
<path d="M1464 2639 c-97 -23 -201 -114 -224 -197 -28 -104 3 -220 76 -281 36
-30 69 -47 278 -146 46 -22 99 -57 127 -84 44 -42 49 -52 49 -91 0 -37 -5 -48
-39 -80 -86 -82 -251 -63 -367 42 -54 50 -104 134 -104 175 0 16 -6 23 -20 23
-19 0 -20 -7 -20 -175 0 -165 1 -175 19 -175 12 0 21 9 25 25 12 47 37 49 144
14 86 -29 110 -33 212 -33 106 -1 120 1 176 27 121 56 188 157 188 282 0 90
-30 159 -93 217 -51 47 -103 74 -311 161 -166 69 -178 204 -22 246 32 9 57 8
110 -3 114 -24 182 -79 228 -183 13 -29 28 -53 34 -53 6 0 10 55 10 150 0 160
-7 181 -42 120 -21 -37 -32 -37 -127 -3 -84 29 -232 40 -307 22z"/>
<path d="M2062 2618 c3 -7 19 -17 36 -22 17 -5 43 -22 59 -38 l28 -29 0 -369
c0 -358 -1 -369 -21 -397 -12 -15 -39 -34 -62 -41 -23 -8 -42 -20 -42 -28 0
-12 47 -14 285 -14 241 0 285 2 285 14 0 10 -15 17 -44 21 -28 5 -53 16 -68
32 -22 24 -23 30 -23 196 l0 172 120 6 c119 6 157 14 225 52 51 28 66 44 89
93 15 31 21 64 21 111 0 115 -53 190 -165 232 -53 20 -75 21 -391 21 -262 0
-335 -3 -332 -12z m515 -64 c48 -31 63 -71 63 -172 0 -62 -5 -102 -15 -121
-21 -42 -72 -81 -106 -81 l-29 0 0 201 0 202 32 -7 c18 -3 43 -13 55 -22z"/>
<path d="M2990 2617 c0 -8 18 -19 39 -26 22 -6 49 -23 61 -38 20 -26 21 -34
18 -404 l-3 -377 -24 -26 c-13 -14 -39 -29 -58 -32 -19 -4 -33 -12 -33 -20 0
-12 63 -14 403 -12 l402 3 3 90 c1 50 7 128 12 174 10 87 8 101 -14 101 -8 0
-18 -23 -25 -57 -22 -112 -108 -221 -193 -243 -60 -17 -128 -7 -150 20 -17 20
-18 52 -18 390 0 355 1 368 21 393 11 15 38 32 60 38 21 7 39 18 39 26 0 10
-51 13 -270 13 -219 0 -270 -3 -270 -13z"/>
<path d="M5055 2570 c3 -5 8 -10 11 -10 2 0 4 5 4 10 0 6 -5 10 -11 10 -5 0
-7 -4 -4 -10z"/>
<path d="M5071 2534 c0 -11 3 -14 6 -6 3 7 2 16 -1 19 -3 4 -6 -2 -5 -13z"/>
<path d="M5091 2454 c0 -11 3 -14 6 -6 3 7 2 16 -1 19 -3 4 -6 -2 -5 -13z"/>
<path d="M5101 2395 c0 -16 4 -39 9 -50 7 -16 9 -14 9 15 0 19 -4 42 -9 50 -7
11 -10 8 -9 -15z"/>
<path d="M5118 2150 c-2 -61 0 -110 5 -110 4 0 7 50 7 110 0 61 -2 110 -4 110
-3 0 -6 -50 -8 -110z"/>
<path d="M3995 2043 c-101 -53 -141 -160 -96 -259 24 -52 60 -80 128 -100 63
-18 125 -8 179 28 55 38 74 76 74 152 0 93 -28 140 -107 180 -41 21 -138 20
-178 -1z m189 -26 c81 -44 109 -150 63 -232 -78 -139 -296 -116 -337 35 -19
70 6 154 55 186 73 48 146 52 219 11z"/>
<path d="M4008 1973 c8 -3 12 -34 12 -103 0 -69 -4 -100 -12 -103 -7 -3 7 -5
32 -5 25 0 37 2 28 5 -14 3 -18 15 -18 49 0 59 18 57 64 -6 28 -39 42 -50 63
-50 22 1 25 3 12 10 -9 5 -28 27 -44 50 l-28 40 21 23 c26 27 28 59 6 81 -11
12 -34 16 -82 15 -37 0 -61 -3 -54 -6z m100 -15 c20 -20 15 -66 -9 -78 -34
-19 -49 -5 -49 45 0 40 2 45 23 45 13 0 28 -5 35 -12z"/>
<path d="M5108 1997 c-5 -10 -8 -31 -8 -45 1 -24 2 -25 11 -9 6 10 9 30 7 45
-2 23 -4 24 -10 9z"/>
<path d="M5066 1818 c-82 -298 -305 -604 -610 -832 -191 -144 -469 -301 -596
-337 -25 -7 -49 -17 -55 -22 -28 -26 141 41 285 114 255 128 406 235 585 414
146 146 239 270 315 420 45 90 102 244 98 263 -1 4 2 19 6 34 5 15 6 32 4 39
-2 6 -16 -36 -32 -93z"/>
<path d="M1905 541 c6 -10 96 -34 102 -27 3 2 -4 9 -14 14 -25 13 -95 23 -88
13z"/>
<path d="M3423 513 c9 -2 23 -2 30 0 6 3 -1 5 -18 5 -16 0 -22 -2 -12 -5z"/>
<path d="M3188 473 c7 -3 16 -2 19 1 4 3 -2 6 -13 5 -11 0 -14 -3 -6 -6z"/>
<path d="M2315 460 c45 -11 95 -11 95 0 0 6 -27 9 -62 9 -50 -1 -57 -3 -33 -9z"/>
</g>
</svg>
