<?xml version="1.0" encoding="UTF-8"?>
<svg version="1.1" xmlns="http://www.w3.org/2000/svg" width="512" height="512">
<path d="M0 0 C0.92406143 -0.00705963 1.84812286 -0.01411926 2.80018616 -0.02139282 C41.35088516 -0.24904289 41.35088516 -0.24904289 58.0859375 3.203125 C59.16907227 3.42307129 60.25220703 3.64301758 61.36816406 3.86962891 C90.97471391 10.01601791 90.97471391 10.01601791 96.6484375 15.828125 C99.12642033 19.92218358 99.40953554 22.34915439 99.0859375 27.203125 C97.27196277 32.34272007 95.00217778 34.83604634 90.0859375 37.203125 C83.16332824 38.13265953 76.86382914 36.30599802 70.2734375 34.390625 C62.68915884 32.29978409 55.1871233 30.52203092 47.3984375 29.390625 C46.63490967 29.27936279 45.87138184 29.16810059 45.0847168 29.0534668 C23.6834543 26.14341285 1.44899697 25.83353088 -19.9140625 29.203125 C-20.83799805 29.3484668 -21.76193359 29.49380859 -22.71386719 29.64355469 C-67.37371555 36.99152974 -109.21639182 56.72608676 -142.26171875 87.73828125 C-144.37117314 89.69861368 -146.50352192 91.56367183 -148.7265625 93.390625 C-152.55116601 96.63602173 -155.69660706 100.36817811 -158.9140625 104.203125 C-159.66558594 105.06679687 -160.41710937 105.93046875 -161.19140625 106.8203125 C-181.60119656 130.61561306 -196.48487053 158.3732502 -205.9140625 188.203125 C-206.15108887 188.94884766 -206.38811523 189.69457031 -206.63232422 190.46289062 C-224.8492835 248.87158521 -216.5634331 311.86289093 -188.6640625 365.703125 C-160.63834674 418.27651212 -111.58822463 458.03498526 -54.74609375 475.5234375 C6.24538966 493.43532163 69.79965412 486.40975073 125.71118164 456.2890625 C140.51332646 448.06452881 154.31138688 437.82280782 166.74609375 426.35546875 C169.05024334 424.23595886 171.40589184 422.18877158 173.7734375 420.140625 C177.93158917 416.44045157 181.52571386 412.47240786 185.0859375 408.203125 C185.83488281 407.34203125 186.58382813 406.4809375 187.35546875 405.59375 C215.64625467 372.62496011 233.34546267 331.98496359 240.0859375 289.203125 C240.21581055 288.38505371 240.34568359 287.56698242 240.47949219 286.72412109 C245.32373071 254.46312083 242.40872593 219.17149028 232.0859375 188.203125 C231.54454893 183.5436332 231.65526709 180.09759432 233.7109375 175.828125 C236.87061975 172.33584462 239.43367011 170.36026113 244.26171875 170.07421875 C249.01199959 170.3376797 252.03260379 171.26948425 255.71191406 174.53466797 C258.40454786 177.80429472 259.20226618 181.72355558 260.2109375 185.765625 C260.45682617 186.69020508 260.70271484 187.61478516 260.95605469 188.56738281 C262.58246395 194.82427493 264.02843053 201.12220386 265.3359375 207.453125 C265.48691895 208.18217041 265.63790039 208.91121582 265.79345703 209.66235352 C268.75808445 225.02193107 269.46087381 240.22272074 269.3984375 255.828125 C269.39628235 256.79901062 269.3941272 257.76989624 269.39190674 258.77020264 C269.3408579 273.10784465 268.9498108 287.11019234 266.0859375 301.203125 C265.78792236 302.7183374 265.78792236 302.7183374 265.48388672 304.26416016 C256.69862737 347.92722814 238.26490893 388.37713219 209.0859375 422.203125 C208.45171875 422.94820313 207.8175 423.69328125 207.1640625 424.4609375 C195.85007809 437.39747006 183.65562982 449.84528104 169.74951172 459.98828125 C168.07812381 461.20883103 166.42756247 462.45415309 164.77734375 463.703125 C155.38157365 470.71509774 145.35750427 476.573938 135.0859375 482.203125 C134.42400391 482.56647949 133.76207031 482.92983398 133.08007812 483.30419922 C100.4655562 500.95490811 62.51298872 512.21074485 25.29296875 512.40625 C24.39256363 512.41330963 23.49215851 512.42036926 22.56446838 512.42764282 C-14.97972655 512.65521892 -14.97972655 512.65521892 -31.9140625 509.203125 C-33.45320313 508.89713379 -33.45320313 508.89713379 -35.0234375 508.58496094 C-83.72928268 498.67355228 -128.03857136 476.75634804 -163.9140625 442.203125 C-164.57341797 441.57100098 -165.23277344 440.93887695 -165.91210938 440.28759766 C-174.86745192 431.65675362 -183.32635434 422.92710661 -190.68310547 412.8828125 C-191.91191957 411.2060491 -193.16350758 409.54825347 -194.41796875 407.890625 C-201.42727205 398.4951759 -207.28573781 388.47311832 -212.9140625 378.203125 C-213.45909424 377.21022461 -213.45909424 377.21022461 -214.01513672 376.19726562 C-231.5165936 343.85852769 -242.83252867 306.1229983 -243.15234375 269.2109375 C-243.16209229 268.275345 -243.17184082 267.3397525 -243.18188477 266.37580872 C-243.35077345 245.96677264 -243.18323793 226.25014211 -238.9140625 206.203125 C-238.72682617 205.27935059 -238.53958984 204.35557617 -238.34667969 203.40380859 C-228.73171873 156.61598044 -206.01362946 113.56933216 -172.9140625 79.203125 C-172.28193848 78.54376953 -171.64981445 77.88441406 -170.99853516 77.20507812 C-162.36769112 68.24973558 -153.63804411 59.79083316 -143.59375 52.43408203 C-141.9169866 51.20526793 -140.25919097 49.95367992 -138.6015625 48.69921875 C-129.2061134 41.68991545 -119.18405582 35.83144969 -108.9140625 30.203125 C-107.92116211 29.65809326 -107.92116211 29.65809326 -106.90820312 29.10205078 C-74.64709705 11.64260762 -36.84365622 0.18747769 0 0 Z " fill="#000000" transform="translate(242.9140625,-0.203125)"/>
<path d="M0 0 C0.80928955 -0.00950684 1.6185791 -0.01901367 2.45239258 -0.02880859 C9.14083582 0.00849141 16.36948288 0.33437982 21.875 4.5 C25.60940502 8.50765417 26.47211284 11.31168086 26.375 16.75 C25.19246902 21.16478232 23.60990343 23.00022088 20.4375 26.25 C17.52165362 27.70792319 14.91099131 27.41547789 11.65625 27.4609375 C10.25153134 27.48641552 8.84682773 27.51273394 7.44213867 27.53979492 C6.70627533 27.55303802 5.97041199 27.56628113 5.21224976 27.57992554 C-33.0040332 28.33718616 -68.37772571 38.60552492 -97.5625 64.25 C-98.82126953 65.32701172 -98.82126953 65.32701172 -100.10546875 66.42578125 C-130.17209296 92.66998191 -147.60355559 130.58547877 -150.43798828 170.18603516 C-152.74695732 208.46059255 -140.10324828 248.48447794 -114.76953125 277.49609375 C-112.10033483 280.48012554 -109.34239067 283.3690224 -106.5625 286.25 C-105.89734375 286.96671875 -105.2321875 287.6834375 -104.546875 288.421875 C-79.8939138 314.31784264 -41.94285773 329.65498387 -6.5625 331.25 C-5.43328125 331.30285156 -4.3040625 331.35570312 -3.140625 331.41015625 C38.46706007 332.38666314 77.57017341 316.50817899 107.62890625 287.9921875 C133.00757726 263.21356852 151.51377316 227.35104383 152.54760742 191.42358398 C152.54607666 190.12751221 152.5445459 188.83144043 152.54296875 187.49609375 C152.5564138 186.05011518 152.57143493 184.60415056 152.58789062 183.15820312 C152.61074193 180.91754679 152.6249502 178.67850264 152.61254883 176.43774414 C152.55544852 162.32470792 152.55544852 162.32470792 156.30078125 157.78515625 C159.86203593 154.39669683 163.51034738 153.89721099 168.375 153.96875 C172.81583778 154.57431879 175.57684042 157.15191708 178.25 160.5625 C188.09697941 182.84776919 177.65770985 221.04286945 169.56494141 242.31103516 C167.95203878 246.33582823 166.23541419 250.30462444 164.4375 254.25 C163.93814941 255.34610596 163.93814941 255.34610596 163.42871094 256.46435547 C143.56762898 299.34138334 106.41762546 331.82709286 62.4375 348.25 C50.3446614 352.52764645 38.13928246 355.47913966 25.4375 357.25 C24.78144775 357.3442627 24.12539551 357.43852539 23.44946289 357.53564453 C-3.55176501 361.02269233 -30.83874547 357.6856611 -56.5625 349.25 C-57.63274414 348.90412842 -57.63274414 348.90412842 -58.72460938 348.55126953 C-103.66084373 333.7481129 -139.24067561 299.27784658 -160.4296875 257.6640625 C-180.66260677 216.59724616 -183.66271139 167.23675824 -169.43798828 123.82470703 C-154.44091206 79.72008746 -123.84989967 41.35049769 -81.875 20.125 C-79.12439199 18.78680284 -76.35096743 17.50719902 -73.5625 16.25 C-72.81935547 15.91226563 -72.07621094 15.57453125 -71.31054688 15.2265625 C-48.68636873 5.12071634 -24.71414909 0.2333034 0 0 Z " fill="#000000" transform="translate(255.5625,75.75)"/>
<path d="M0 0 C3.82158012 2.43191462 5.32820787 4.48462362 6.75 8.75 C6.83567246 10.11592183 6.86773647 11.48564858 6.86352539 12.85424805 C6.86344986 13.67487228 6.86337433 14.49549652 6.86329651 15.34098816 C6.85813522 16.22232925 6.85297394 17.10367035 6.84765625 18.01171875 C6.84553383 19.37040825 6.84553383 19.37040825 6.84336853 20.75654602 C6.83777001 23.65023091 6.82521781 26.54383849 6.8125 29.4375 C6.80748481 31.39908742 6.80292193 33.36067606 6.79882812 35.32226562 C6.78780107 40.13154021 6.77053747 44.940757 6.75 49.75 C7.96059082 49.73428955 9.17118164 49.7185791 10.41845703 49.70239258 C14.92473658 49.64795031 19.43098724 49.61359793 23.9375 49.58520508 C25.88514094 49.57015101 27.83274816 49.5497032 29.78027344 49.52368164 C32.58537128 49.48714947 35.39001954 49.47023967 38.1953125 49.45703125 C39.49409836 49.43380547 39.49409836 49.43380547 40.81912231 49.41011047 C45.89726192 49.4087079 49.33545444 49.9528824 53.75 52.75 C56.63637609 55.86790359 57.66584075 59.15036537 58.25 63.3125 C57.17143704 70.72762035 51.18916844 75.59829919 46.09155273 80.66723633 C45.32525543 81.43703827 44.55895813 82.20684021 43.7694397 82.99996948 C41.24581828 85.53236383 38.71498708 88.05740751 36.18359375 90.58203125 C34.42500528 92.34196722 32.66671377 94.10219998 30.90870667 95.86271667 C27.22924661 99.54512163 23.54620213 103.22389355 19.8605957 106.90014648 C16.07215139 110.67944549 12.28807294 114.46300767 8.5090332 118.25170898 C3.94440203 122.82790981 -0.62505857 127.39922379 -5.19874382 131.96637535 C-6.94218833 133.70848345 -8.68414219 135.45208463 -10.42459297 137.19718361 C-12.85191382 139.62956505 -15.28552114 142.05547408 -17.72094727 144.47973633 C-18.4425856 145.20542313 -19.16422394 145.93110992 -19.9077301 146.67878723 C-20.57079163 147.33620911 -21.23385315 147.99363098 -21.91700745 148.67097473 C-22.49161996 149.24483319 -23.06623247 149.81869165 -23.65825748 150.40993977 C-25.74107424 152.16342683 -27.4690032 152.80373899 -30.19857597 152.61592197 C-30.94103632 152.50044986 -31.68349667 152.38497774 -32.44845581 152.26600647 C-51.12753699 149.67786601 -71.54283174 147.82862453 -87.45898819 159.5537014 C-92.53626139 163.70701056 -97.2820723 168.1369797 -101.8828125 172.80859375 C-102.35116107 173.2838287 -102.81950964 173.75906365 -103.30205059 174.24869967 C-109.09130011 180.16253886 -114.65493426 186.26810237 -120.14724326 192.45718825 C-125.8081412 198.82681936 -131.65520248 205.02044136 -137.49909949 211.22171986 C-138.91238312 212.72151229 -140.32505392 214.22187777 -141.73727417 215.72267151 C-142.19520446 216.20907657 -142.65313474 216.69548164 -143.12494171 217.19662625 C-146.24649469 220.52184799 -149.31295501 223.89248112 -152.36160278 227.28453064 C-153.17200516 228.17571091 -153.98240753 229.06689117 -154.81736755 229.9850769 C-156.32156896 231.64143988 -157.81314289 233.30940136 -159.28892517 234.99113464 C-163.71289547 239.82774227 -166.68017652 241.94484898 -173.25 242.75 C-177.81241025 242.1313681 -179.75314215 241.21445408 -183.125 238.0625 C-185.52695055 234.31828297 -186.25 232.18786768 -186.25 227.75 C-184.18816815 220.99949272 -180.23141184 217.45482315 -175.03076172 212.85424805 C-173.29416698 211.27962065 -171.55852443 209.70394265 -169.82369995 208.12736511 C-168.44404871 206.88191453 -168.44404871 206.88191453 -167.03652573 205.61130333 C-161.60605269 200.66983558 -156.28273663 195.61279056 -150.94580054 190.5707525 C-145.32848837 185.26680592 -139.68066013 180.01081398 -133.90380859 174.88061523 C-105.89440972 150.94700372 -105.89440972 150.94700372 -94.22127724 117.43675327 C-93.9668857 108.86242719 -94.45116603 100.26884509 -95.64848709 91.77331734 C-96.51028806 85.45695431 -96.51028806 85.45695431 -95.28279114 82.12301636 C-92.24507641 78.57688385 -89.03131922 75.25395865 -85.72094727 71.9621582 C-84.95640228 71.19410858 -84.1918573 70.42605896 -83.40414429 69.63473511 C-80.87990101 67.10170146 -78.34842652 64.5760393 -75.81640625 62.05078125 C-74.05878406 60.29181178 -72.30145885 58.53254551 -70.54441833 56.772995 C-66.39194361 52.61719546 -62.23433579 48.46657984 -58.07488531 44.31776351 C-54.75868761 41.00907988 -51.44760953 37.69533601 -48.1394043 34.37866211 C-43.57592722 29.80360364 -39.00760583 25.23344691 -34.43507195 20.66744041 C-32.69245453 18.92615826 -30.95132461 17.18338616 -29.21170235 15.43911171 C-26.78208647 13.00442516 -24.346166 10.5762281 -21.90844727 8.1496582 C-21.18883316 7.42599564 -20.46921906 6.70233307 -19.72779846 5.95674133 C-19.06191711 5.29649963 -18.39603577 4.63625793 -17.7099762 3.95600891 C-17.13498666 3.38177342 -16.55999712 2.80753794 -15.96758366 2.21590137 C-11.03275153 -1.99581616 -6.03695716 -2.3219066 0 0 Z M-40.49855137 62.20661831 C-43.41448282 64.96326006 -46.35135202 67.68117355 -49.36987305 70.32543945 C-65.17079546 83.8393793 -65.17079546 83.8393793 -71.77685547 102.77392578 C-72.15063378 110.81447413 -71.43221608 118.80019574 -70.25 126.75 C-50.2097887 129.8198551 -50.2097887 129.8198551 -31.66000938 123.51728249 C-24.41608495 117.87568714 -18.30027581 110.97805358 -12.26953125 104.09375 C-9.59798763 101.08578977 -6.8223419 98.17696887 -4.05664062 95.25585938 C5.68496134 86.53257036 5.68496134 86.53257036 11.75 76.75 C9.81447266 76.67652344 9.81447266 76.67652344 7.83984375 76.6015625 C6.12237653 76.52648197 4.40492959 76.45093646 2.6875 76.375 C1.41616211 76.32859375 1.41616211 76.32859375 0.11914062 76.28125 C-12.29387019 75.70612981 -12.29387019 75.70612981 -16.625 71.375 C-18.95863944 67.60527474 -19.36975871 64.36680588 -19.56640625 59.984375 C-19.60830078 59.09492187 -19.65019531 58.20546875 -19.69335938 57.2890625 C-19.73267578 56.36867188 -19.77199219 55.44828125 -19.8125 54.5 C-19.85568359 53.56414062 -19.89886719 52.62828125 -19.94335938 51.6640625 C-20.0491805 49.35951359 -20.15126557 47.05486161 -20.25 44.75 C-25.54025337 44.75 -36.35913358 58.2874249 -40.49855137 62.20661831 Z " fill="#000000" transform="translate(429.25,26.25)"/>
<path d="M0 0 C0.80469727 -0.04294189 1.60939453 -0.08588379 2.43847656 -0.13012695 C8.01918905 -0.1919423 10.8711554 1.10928273 14.94628906 4.91210938 C17.51729143 8.04353248 17.58907772 11.50521537 17.53125 15.4375 C16.94289867 19.75207646 14.50251824 22.54790126 11.1328125 25.109375 C7.41513159 26.90272785 3.86380976 27.14451037 -0.1875 27.4375 C-21.43558031 29.42587616 -39.84638502 38.10193626 -54.0625 54.125 C-67.48430439 71.19142444 -72.71623949 90.9942556 -70.75 112.5 C-68.28834376 131.66331002 -58.06281139 148.80927291 -43.56640625 161.3359375 C-26.14590167 174.72145697 -5.2758477 179.84361399 16.48339844 177.23193359 C35.50771584 174.06121403 52.34790251 163.65798681 64.1875 148.5625 C73.60343069 135.16290633 78.38151079 121.00663466 79.39160156 104.71630859 C79.78948432 99.62909332 80.96324898 96.58990446 84.25 92.5 C87.81085596 89.53262003 90.82694377 89.02024381 95.328125 89.21484375 C99.31146089 89.80586716 101.56393341 91.82663834 104.359375 94.5703125 C106.92076627 98.53941054 106.85844231 101.55828086 106.75 106.1875 C106.73718994 107.0225708 106.72437988 107.8576416 106.71118164 108.71801758 C106.23565412 123.71336161 101.96539608 137.18561774 95.25 150.5 C94.72664062 151.54671875 94.20328125 152.5934375 93.6640625 153.671875 C80.17339703 178.54734596 56.78504281 194.32614642 30.25 202.5 C26.91784312 203.40915448 23.67599576 204.08174558 20.25 204.5 C19.45980469 204.60828125 18.66960937 204.7165625 17.85546875 204.828125 C-9.55593221 208.1088596 -36.72433373 200.80001565 -58.76953125 184.23046875 C-61.48899809 182.04671084 -64.1345929 179.80696652 -66.75 177.5 C-67.37261719 176.96117187 -67.99523437 176.42234375 -68.63671875 175.8671875 C-88.06401392 157.84372951 -97.42523921 131.19005191 -98.93359375 105.35546875 C-99.51193762 79.94235863 -90.91110753 55.97121389 -74.75 36.5 C-74.05261719 35.63890625 -73.35523438 34.7778125 -72.63671875 33.890625 C-59.19005167 18.0594484 -40.60796344 7.93240839 -20.75 2.5 C-19.85539062 2.25507813 -18.96078125 2.01015625 -18.0390625 1.7578125 C-12.10508174 0.42494913 -6.06163016 0.18356293 0 0 Z " fill="#000000" transform="translate(252.75,152.5)"/>
</svg>
