<?xml version="1.0" encoding="UTF-8"?>
<svg version="1.1" xmlns="http://www.w3.org/2000/svg" width="512" height="512">
<path d="M0 0 C0.80492386 -0.00974854 1.60984772 -0.01949707 2.43916321 -0.02954102 C21.10780984 -0.20895774 38.95917755 0.2768752 57.28515625 4.23828125 C58.15366211 4.4202002 59.02216797 4.60211914 59.91699219 4.78955078 C87.3633359 10.67541866 113.55065479 21.3165584 138.38574219 34.25390625 C140.315865 35.25419612 142.25654548 36.23137329 144.19921875 37.20703125 C185.10882436 58.01254427 221.87922461 87.58489187 255.47265625 118.61328125 C256.19187256 119.26723877 256.91108887 119.92119629 257.65209961 120.5949707 C262.75913229 125.36765415 266.63915071 129.55521069 267.88671875 136.66796875 C267.94330594 144.98628619 266.91674559 150.03483074 261.28515625 156.23828125 C260.73214844 156.85058594 260.17914063 157.46289062 259.609375 158.09375 C256.12140528 161.7260495 252.32094986 165.01272779 248.5078125 168.296875 C245.95538742 170.52632186 243.46628111 172.81829507 240.97265625 175.11328125 C235.57018105 180.03405427 229.98278044 184.66528615 224.28515625 189.23828125 C223.15316839 190.16217574 222.02168138 191.08668415 220.890625 192.01171875 C192.88312242 214.81019712 162.52129842 234.0188022 130.28515625 250.23828125 C129.48287598 250.64675293 128.6805957 251.05522461 127.85400391 251.47607422 C95.87299635 267.67371767 58.75462313 280.10922149 22.5703125 280.4765625 C21.76538864 280.48631104 20.96046478 280.49605957 20.13114929 280.50610352 C1.46250266 280.68552024 -16.38886505 280.1996873 -34.71484375 276.23828125 C-35.58334961 276.0563623 -36.45185547 275.87444336 -37.34667969 275.68701172 C-107.87517037 260.56217824 -170.68104386 217.63238925 -223.71484375 170.23828125 C-224.45541016 169.57828125 -225.19597656 168.91828125 -225.95898438 168.23828125 C-228.28770737 166.14925108 -230.59736484 164.04095866 -232.90234375 161.92578125 C-233.62156006 161.28020264 -234.34077637 160.63462402 -235.08178711 159.96948242 C-240.45949875 154.96944604 -243.98550998 150.249617 -245.31640625 142.9296875 C-245.39226706 132.80226977 -242.19011503 127.73126428 -235.33984375 120.61328125 C-232.29115739 117.70438182 -229.12993288 114.92923952 -225.9375 112.1796875 C-223.38507492 109.95024064 -220.89596861 107.65826743 -218.40234375 105.36328125 C-212.99986855 100.44250823 -207.41246794 95.81127635 -201.71484375 91.23828125 C-200.58285589 90.31438676 -199.45136888 89.38987835 -198.3203125 88.46484375 C-170.31280992 65.66636538 -139.95098592 46.4577603 -107.71484375 30.23828125 C-106.91256348 29.82980957 -106.1102832 29.42133789 -105.28369141 29.00048828 C-73.30268385 12.80284483 -36.18431063 0.36734101 0 0 Z M-62.71484375 73.23828125 C-81.93110572 93.98386511 -88.63231263 119.78603037 -88.05859375 147.4296875 C-87.06550379 173.22519924 -74.04447367 196.77064827 -55.52734375 214.36328125 C-35.50474364 231.91086552 -9.83554653 241.52635142 16.8828125 240.01953125 C38.15468034 238.42927277 57.70042163 230.7488984 74.28515625 217.23828125 C75.11273438 216.57441406 75.9403125 215.91054688 76.79296875 215.2265625 C94.91221403 199.8621241 106.9710669 177.76505455 110.28515625 154.23828125 C112.45060453 123.41769007 105.88659181 97.83818621 85.7890625 74 C67.9536895 54.32822354 44.28629093 42.85640676 17.91015625 40.36328125 C-13.42401099 39.03415433 -40.70027795 51.28469762 -62.71484375 73.23828125 Z M140.28515625 83.23828125 C140.44371094 83.75132812 140.60226562 84.264375 140.765625 84.79296875 C142.51950108 90.54878305 144.19908487 96.32653382 145.84765625 102.11328125 C146.05737061 102.83112793 146.26708496 103.54897461 146.4831543 104.28857422 C149.80067317 116.04723369 150.69344324 127.58281384 150.66015625 139.73828125 C150.65934052 140.86145752 150.65934052 140.86145752 150.6585083 142.00732422 C150.6023282 158.8667484 147.90093653 173.81834899 142.12841797 189.68359375 C141.46454003 191.5180044 140.86825173 193.37661641 140.28515625 195.23828125 C140.61515625 195.89828125 140.94515625 196.55828125 141.28515625 197.23828125 C168.12879173 180.96713908 192.80320149 162.02442247 216.28515625 141.23828125 C212.28250733 131.72134471 200.23490271 124.90635643 192.18457031 118.70947266 C190.29742781 117.24778619 188.42712271 115.76662829 186.55859375 114.28125 C177.68823476 107.29214539 168.48641547 100.87816508 159.09765625 94.61328125 C158.50634918 94.21760956 157.91504211 93.82193787 157.30581665 93.41427612 C155.60016191 92.27540405 153.89080639 91.14236076 152.1796875 90.01171875 C150.69239136 89.02824463 150.69239136 89.02824463 149.17504883 88.02490234 C146.28481922 86.23807289 143.34660657 84.7089362 140.28515625 83.23828125 Z M-118.71484375 83.23828125 C-139.84929107 96.04882613 -159.71511098 110.44426471 -178.71484375 126.23828125 C-179.88273659 127.19410318 -181.05070909 128.14982778 -182.21875 129.10546875 C-183.40537233 130.08672657 -184.59157674 131.06849002 -185.77734375 132.05078125 C-186.33808594 132.50702881 -186.89882812 132.96327637 -187.4765625 133.43334961 C-190.29752271 135.78921616 -192.40850817 137.75742433 -193.71484375 141.23828125 C-185.99352043 148.54949766 -178.02663438 155.33892778 -169.58203125 161.79931641 C-167.70603833 163.24506723 -165.8499903 164.71355569 -163.99609375 166.1875 C-155.12439977 173.18095246 -145.91917082 179.59635032 -136.52734375 185.86328125 C-135.64038315 186.45678879 -135.64038315 186.45678879 -134.73550415 187.06228638 C-133.02984941 188.20115845 -131.32049389 189.33420174 -129.609375 190.46484375 C-128.61784424 191.12049316 -127.62631348 191.77614258 -126.60473633 192.45166016 C-123.71450672 194.23848961 -120.77629407 195.7676263 -117.71484375 197.23828125 C-117.87339844 196.72523438 -118.03195313 196.2121875 -118.1953125 195.68359375 C-119.94918858 189.92777945 -121.62877237 184.15002868 -123.27734375 178.36328125 C-123.59191528 177.28651123 -123.59191528 177.28651123 -123.9128418 176.18798828 C-127.23036067 164.42932881 -128.12313074 152.89374866 -128.08984375 140.73828125 C-128.08929993 139.98949707 -128.0887561 139.24071289 -128.0881958 138.46923828 C-128.0320157 121.6098141 -125.33062403 106.65821351 -119.55810547 90.79296875 C-118.89422753 88.9585581 -118.29793923 87.09994609 -117.71484375 85.23828125 C-118.20984375 84.24828125 -118.20984375 84.24828125 -118.71484375 83.23828125 Z " fill="#000000" transform="translate(244.71484375,115.76171875)"/>
<path d="M0 0 C12.67509386 9.86461049 22.25717381 22.85371895 25 39 C26.57180562 56.85760429 24.19779234 73.18170456 12.9296875 87.66015625 C2.76123891 99.40524582 -10.56873812 108.81779591 -26.48803711 110.21899414 C-45.03223705 111.03774903 -60.82828565 108.17326778 -75.25 95.6875 C-86.44897541 85.03784143 -94.63903909 71.64752094 -95.3359375 55.86328125 C-95.64604179 36.81572149 -91.79590446 21.43138372 -78.33984375 7.28125 C-57.12005776 -13.40715571 -24.74166717 -16.54346244 0 0 Z M-52 39.5625 C-54.91388882 44.80551763 -54.95610282 50.17717706 -54 56 C-52.04435326 61.44530996 -48.40701267 65.34964702 -43.37109375 68.1484375 C-37.89747817 70.11425002 -32.10252183 70.11425002 -26.62890625 68.1484375 C-21.59298733 65.34964702 -17.95564674 61.44530996 -16 56 C-15.04389718 50.17717706 -15.08611118 44.80551763 -18 39.5625 C-21.70529004 34.6186729 -25.73267371 31.53649234 -31.90234375 30.5234375 C-40.74979717 30.09947378 -46.65836177 32.43535595 -52 39.5625 Z " fill="#000000" transform="translate(291,206)"/>
<path d="M0 0 C8.56349892 4.91608271 15.46805173 12.78531594 22.43994141 19.70727539 C23.56604535 20.82179525 24.69661852 21.93181695 25.83154297 23.03735352 C39.32270898 36.18084911 39.32270898 36.18084911 40.90625 44.84375 C40.82220513 51.81947409 39.81538332 57.24262258 34.94921875 62.46875 C30.43467531 66.4816775 26.05164941 68.22582635 20.0625 68.3125 C19.17949219 68.34085937 18.29648437 68.36921875 17.38671875 68.3984375 C9.57754551 67.20325924 4.27120788 62.41726784 -1.08203125 56.94140625 C-2.08649544 55.9355674 -2.08649544 55.9355674 -3.11125183 54.90940857 C-4.51505609 53.49959818 -5.91403323 52.08496617 -7.30834961 50.66577148 C-9.43826468 48.49922216 -11.58387425 46.34922902 -13.73242188 44.20117188 C-15.09990734 42.82385825 -16.46647614 41.44563377 -17.83203125 40.06640625 C-18.46953812 39.42667374 -19.10704498 38.78694122 -19.76387024 38.12782288 C-25.45409637 32.31548744 -28.68744388 27.45251285 -28.9375 19.1875 C-28.85308304 13.96899725 -27.83992181 10.09641548 -24.625 5.9375 C-17.2181396 -0.90304109 -9.79798682 -2.87182372 0 0 Z " fill="#000000" transform="translate(405.625,378.0625)"/>
<path d="M0 0 C4.1645337 3.21926481 7.16752562 7.44007685 8.82421875 12.41015625 C9.45897306 19.39245363 9.04156769 25.31991165 4.54101562 31.04150391 C-0.73450224 37.06807328 -6.30422634 42.79307471 -11.94555664 48.47509766 C-13.0600765 49.6012016 -14.1700982 50.73177477 -15.27563477 51.86669922 C-28.41913036 65.35786523 -28.41913036 65.35786523 -37.08203125 66.94140625 C-44.05775534 66.85736138 -49.48090383 65.85053957 -54.70703125 60.984375 C-58.71995875 56.46983156 -60.4641076 52.08680566 -60.55078125 46.09765625 C-60.57914062 45.21464844 -60.6075 44.33164062 -60.63671875 43.421875 C-59.44154049 35.61270176 -54.65554909 30.30636413 -49.1796875 24.953125 C-48.17384865 23.94866081 -48.17384865 23.94866081 -47.14768982 22.92390442 C-45.73787943 21.52010016 -44.32324742 20.12112302 -42.90405273 18.72680664 C-40.73750341 16.59689157 -38.58751027 14.451282 -36.43945312 12.30273438 C-35.0621395 10.93524891 -33.68391502 9.56868011 -32.3046875 8.203125 C-31.66495499 7.56561813 -31.02522247 6.92811127 -30.36610413 6.27128601 C-21.8873967 -2.02929525 -11.20798486 -6.34285553 0 0 Z " fill="#000000" transform="translate(126.17578125,379.58984375)"/>
<path d="M0 0 C5.40453536 3.13418751 8.62696635 7.45100549 10.625 13.375 C10.9609375 15.98828125 10.9609375 15.98828125 11 18.6875 C11.02835937 19.57050781 11.05671875 20.45351562 11.0859375 21.36328125 C9.89075924 29.17245449 5.10476784 34.47879212 -0.37109375 39.83203125 C-1.3769326 40.83649544 -1.3769326 40.83649544 -2.40309143 41.86125183 C-3.81290182 43.26505609 -5.22753383 44.66403323 -6.64672852 46.05834961 C-8.81327784 48.18826468 -10.96327098 50.33387425 -13.11132812 52.48242188 C-14.48864175 53.84990734 -15.86686623 55.21647614 -17.24609375 56.58203125 C-17.88582626 57.21953812 -18.52555878 57.85704498 -19.18467712 58.51387024 C-24.99701256 64.20409637 -29.85998715 67.43744388 -38.125 67.6875 C-43.34350275 67.60308304 -47.21608452 66.58992181 -51.375 63.375 C-56.75849923 57.54580802 -58.70818557 52.84300381 -58.58203125 44.9296875 C-57.63757773 33.27548743 -45.39750132 24.15854339 -37.60522461 16.31005859 C-36.49070475 15.18395465 -35.38068305 14.05338148 -34.27514648 12.91845703 C-24.69105236 3.08084541 -14.58613622 -6.55000079 0 0 Z " fill="#000000" transform="translate(435.375,67.625)"/>
<path d="M0 0 C1.32451172 -0.04253906 1.32451172 -0.04253906 2.67578125 -0.0859375 C10.48495449 1.10924076 15.79129212 5.89523216 21.14453125 11.37109375 C22.14899544 12.3769326 22.14899544 12.3769326 23.17375183 13.40309143 C24.57755609 14.81290182 25.97653323 16.22753383 27.37084961 17.64672852 C29.50076468 19.81327784 31.64637425 21.96327098 33.79492188 24.11132812 C35.16240734 25.48864175 36.52897614 26.86686623 37.89453125 28.24609375 C38.85079155 29.20569252 38.85079155 29.20569252 39.82637024 30.18467712 C45.51659637 35.99701256 48.74994388 40.85998715 49 49.125 C48.91558304 54.34350275 47.90242181 58.21608452 44.6875 62.375 C38.85830802 67.75849923 34.15550381 69.70818557 26.2421875 69.58203125 C14.58798743 68.63757773 5.47104339 56.39750132 -2.37744141 48.60522461 C-3.50354535 47.49070475 -4.63411852 46.38068305 -5.76904297 45.27514648 C-19.26020898 32.13165089 -19.26020898 32.13165089 -20.84375 23.46875 C-20.75970513 16.49302591 -19.75288332 11.06987742 -14.88671875 5.84375 C-10.37217531 1.8308225 -5.98914941 0.08667365 0 0 Z " fill="#000000" transform="translate(86.3125,65.625)"/>
<path d="M0 0 C4.86378685 3.00362996 8.15005075 6.4963896 10.234375 11.89453125 C10.83369362 15.95526885 10.84262872 19.97457197 10.8359375 24.07421875 C10.84450775 25.24155548 10.853078 26.40889221 10.86190796 27.61160278 C10.87336387 30.07421278 10.87441767 32.53689043 10.86572266 34.99951172 C10.85940644 38.75085907 10.90633599 42.49904274 10.95703125 46.25 C10.96157829 48.64973563 10.96298374 51.04947969 10.9609375 53.44921875 C10.97935699 54.56199188 10.99777649 55.67476501 11.01675415 56.82125854 C10.92767235 64.38572193 9.28652106 69.19792454 4.234375 74.89453125 C-1.13293231 79.47910624 -6.35698941 79.6208349 -13.3125 79.40625 C-18.49320931 78.63852045 -22.19051317 76.71646043 -25.765625 72.89453125 C-30.30038135 66.64885754 -30.37955428 61.29185395 -30.3671875 53.71484375 C-30.37575775 52.54750702 -30.384328 51.38017029 -30.39315796 50.17745972 C-30.40461387 47.71484972 -30.40566767 45.25217207 -30.39697266 42.78955078 C-30.39065644 39.03820343 -30.43758599 35.29001976 -30.48828125 31.5390625 C-30.49282829 29.13932687 -30.49423374 26.73958281 -30.4921875 24.33984375 C-30.51060699 23.22707062 -30.52902649 22.11429749 -30.54800415 20.96780396 C-30.45892235 13.40334057 -28.81777106 8.59113796 -23.765625 2.89453125 C-17.29271618 -2.6344117 -7.84970384 -3.13766411 0 0 Z " fill="#000000" transform="translate(265.765625,433.10546875)"/>
<path d="M0 0 C4.86378685 3.00362996 8.15005075 6.4963896 10.234375 11.89453125 C10.83369362 15.95526885 10.84262872 19.97457197 10.8359375 24.07421875 C10.84450775 25.24155548 10.853078 26.40889221 10.86190796 27.61160278 C10.87336387 30.07421278 10.87441767 32.53689043 10.86572266 34.99951172 C10.85940644 38.75085907 10.90633599 42.49904274 10.95703125 46.25 C10.96157829 48.64973563 10.96298374 51.04947969 10.9609375 53.44921875 C10.97935699 54.56199188 10.99777649 55.67476501 11.01675415 56.82125854 C10.92767235 64.38572193 9.28652106 69.19792454 4.234375 74.89453125 C-1.13293231 79.47910624 -6.35698941 79.6208349 -13.3125 79.40625 C-18.49320931 78.63852045 -22.19051317 76.71646043 -25.765625 72.89453125 C-30.30038135 66.64885754 -30.37955428 61.29185395 -30.3671875 53.71484375 C-30.37575775 52.54750702 -30.384328 51.38017029 -30.39315796 50.17745972 C-30.40461387 47.71484972 -30.40566767 45.25217207 -30.39697266 42.78955078 C-30.39065644 39.03820343 -30.43758599 35.29001976 -30.48828125 31.5390625 C-30.49282829 29.13932687 -30.49423374 26.73958281 -30.4921875 24.33984375 C-30.51060699 23.22707062 -30.52902649 22.11429749 -30.54800415 20.96780396 C-30.45892235 13.40334057 -28.81777106 8.59113796 -23.765625 2.89453125 C-17.29271618 -2.6344117 -7.84970384 -3.13766411 0 0 Z " fill="#000000" transform="translate(265.765625,1.10546875)"/>
</svg>
